<?xml version="1.0" standalone="no"?>
<!DOCTYPE svg PUBLIC "-//W3C//DTD SVG 20010904//EN"
 "http://www.w3.org/TR/2001/REC-SVG-20010904/DTD/svg10.dtd">
<svg version="1.0" xmlns="http://www.w3.org/2000/svg"
 width="512.000000pt" height="512.000000pt" viewBox="0 0 512.000000 512.000000"
 preserveAspectRatio="xMidYMid meet">
<metadata>
Created by potrace 1.11, written by Peter Selinger 2001-2013
</metadata>
<g transform="translate(0.000000,512.000000) scale(0.100000,-0.100000)"
fill="#000000" stroke="none">
<path d="M2535 4793 c-429 -27 -854 -182 -1195 -437 -87 -65 -315 -274 -307
-282 2 -2 150 -26 330 -54 909 -140 1396 -251 1792 -407 272 -107 447 -213
596 -362 107 -107 163 -193 206 -316 26 -75 28 -90 27 -245 0 -141 -3 -178
-23 -250 -69 -256 -225 -554 -394 -751 -124 -145 -314 -271 -472 -314 -92 -25
-301 -31 -407 -11 -464 87 -1028 499 -1638 1196 -104 119 -383 464 -450 557
-25 34 -48 63 -51 63 -7 0 -34 -126 -55 -260 -24 -147 -24 -457 0 -610 39
-261 103 -456 227 -700 115 -226 236 -387 423 -567 405 -391 930 -603 1496
-604 226 -1 370 17 576 71 603 159 1120 587 1395 1155 293 605 293 1299 0
1900 -109 223 -220 382 -386 554 -294 305 -633 505 -1025 605 -212 53 -476 81
-665 69z m1315 -1137 c91 -62 258 -226 328 -320 242 -330 343 -770 267 -1165
-86 -445 -390 -848 -795 -1051 -423 -213 -937 -207 -1355 14 -38 20 -61 34
-50 30 11 -3 51 -17 89 -30 238 -82 532 -93 796 -28 280 69 506 199 720 414
226 225 357 462 422 763 30 138 32 428 4 557 -74 347 -260 651 -525 860 -45
35 -81 65 -81 67 0 5 105 -59 180 -111z"/>
<path d="M1976 3588 c4 -7 23 -37 42 -67 50 -78 92 -172 112 -252 17 -64 17
-69 2 -65 -10 3 -71 19 -137 36 -229 60 -500 156 -734 259 -51 23 -96 39 -99
36 -3 -2 71 -80 164 -173 172 -170 324 -293 502 -406 78 -50 108 -76 87 -76
-3 0 -44 -11 -91 -25 -155 -45 -291 -51 -464 -20 -22 4 24 -25 127 -79 349
-183 521 -322 775 -628 100 -120 179 -185 283 -233 339 -157 750 -14 914 317
51 105 72 195 72 313 0 182 -61 340 -182 469 -121 129 -210 176 -425 225 -289
65 -535 160 -833 320 -63 33 -116 61 -118 61 -2 0 -1 -6 3 -12z"/>
</g>
</svg>
