<svg width="60" height="60" viewBox="0 0 60 60" fill="none" xmlns="http://www.w3.org/2000/svg">
<path d="M0.824432 7.17773L25.4283 31.7816C26.689 33.0423 28.3443 33.6722 30 33.6722C31.6557 33.6722 33.311 33.0423 34.5712 31.7816L59.1756 7.17773C59.6992 8.11157 60 9.18686 60 10.3317V49.8711C60 53.4357 57.1001 56.3361 53.535 56.3361H6.46454C2.89993 56.3361 0 53.4357 0 49.8711V10.3317C0 9.18686 0.300751 8.11157 0.824432 7.17773Z" fill="#742092"/>
<path d="M27.9144 29.296L3.31055 4.69162C4.24438 4.16748 5.32013 3.86719 6.46454 3.86719H53.535C54.6799 3.86719 55.7556 4.16748 56.6895 4.69162L32.0856 29.296C30.9352 30.4459 29.0643 30.4459 27.9144 29.296Z" fill="#742092"/>
</svg>
