<svg width="199" height="182" viewBox="0 0 199 182" fill="none" xmlns="http://www.w3.org/2000/svg">
<path d="M1.99084 31.114C7.25467 11.6593 86.399 2.06072 142.241 31.114C121.085 28.1589 25.0651 35.245 8.00462 46.8964L1.99084 31.114Z" fill="#FFC973"/>
<circle cx="107.769" cy="90.9583" r="90.9583" fill="#FFC973"/>
<path d="M191.425 88.7031C191.425 137.337 152 176.762 103.366 176.762C54.7324 176.762 15.3071 137.337 15.3071 88.7031C15.3071 40.0696 54.7324 0.644287 103.366 0.644287C152 0.644287 191.425 40.0696 191.425 88.7031Z" fill="#742092"/>
<path fill-rule="evenodd" clip-rule="evenodd" d="M156.739 127.792C177.419 101.793 173.593 65.4038 147.594 44.7233C145.798 43.2946 143.945 41.9852 142.046 40.7939C162.669 50.3313 176.978 71.2044 176.978 95.4195C176.978 128.64 150.047 155.571 116.826 155.571C104.926 155.571 93.8325 152.115 84.4952 146.152C109.064 157.487 139.021 150.066 156.739 127.792Z" fill="#FFC973"/>
<path d="M150.621 110.737C105.263 200.175 12.368 57.6497 2.60929 43.3364C-3.77035 33.9794 3.53922 24.6365 16.9492 26.7091C96.077 38.9391 183.418 46.0678 150.621 110.737Z" fill="#FFC973"/>
<path fill-rule="evenodd" clip-rule="evenodd" d="M49.3009 79.4243C66.3261 87.6154 75.8021 93.1766 89.4253 110.487L89.4428 110.462C95.0304 117.077 103.589 121.029 112.889 120.379C128.373 119.297 140.049 105.868 138.967 90.3837C138.002 76.5874 127.236 65.8149 113.948 64.3956C99.356 60.8233 90.1952 56.6907 75.7735 48.8171C80.092 55.3488 81.9725 58.9561 83.042 65.0965C66.8351 61.1763 58.0873 57.9187 42.7979 51.1214C53.3326 62.7355 59.9445 68.7795 74.5773 77.6581C64.314 81.2097 58.7484 81.546 49.3009 79.4243Z" fill="#742092"/>
</svg>
